<mxfile host="app.diagrams.net" modified="2022-10-03T01:38:21.272Z" agent="5.0 (Windows NT 10.0; Win64; x64) AppleWebKit/537.36 (KHTML, like Gecko) Chrome/106.0.0.0 Safari/537.36" etag="kE_mU5DBlQtq1fM_AqOp" version="20.3.7" type="github">
  <diagram id="R2lEEEUBdFMjLlhIrx00" name="Page-1">
    <mxGraphModel dx="1629" dy="574" grid="1" gridSize="10" guides="1" tooltips="1" connect="1" arrows="1" fold="1" page="1" pageScale="1" pageWidth="850" pageHeight="1100" math="0" shadow="0" extFonts="Permanent Marker^https://fonts.googleapis.com/css?family=Permanent+Marker">
      <root>
        <mxCell id="0" />
        <mxCell id="1" parent="0" />
        <mxCell id="dP3Mfwqq9fk67yXib2NU-8" value="" style="rounded=0;whiteSpace=wrap;html=1;" vertex="1" parent="1">
          <mxGeometry x="300" y="140" width="420" height="245" as="geometry" />
        </mxCell>
        <mxCell id="Esd037rS6xa6UOOvia4e-4" value="POZO" style="swimlane;childLayout=stackLayout;horizontal=1;startSize=30;horizontalStack=0;rounded=1;fontSize=14;fontStyle=0;strokeWidth=2;resizeParent=0;resizeLast=1;shadow=0;dashed=0;align=center;" parent="1" vertex="1">
          <mxGeometry x="330" y="20" width="160" height="100" as="geometry" />
        </mxCell>
        <mxCell id="Esd037rS6xa6UOOvia4e-5" value="+latitud&#xa;+longitud&#xa;+nombre&#xa;+fecha_produccion" style="align=left;strokeColor=none;fillColor=none;spacingLeft=4;fontSize=12;verticalAlign=top;resizable=0;rotatable=0;part=1;" parent="Esd037rS6xa6UOOvia4e-4" vertex="1">
          <mxGeometry y="30" width="160" height="70" as="geometry" />
        </mxCell>
        <mxCell id="Esd037rS6xa6UOOvia4e-10" value="PARÁMETRO" style="swimlane;childLayout=stackLayout;horizontal=1;startSize=30;horizontalStack=0;rounded=1;fontSize=14;fontStyle=0;strokeWidth=2;resizeParent=0;resizeLast=1;shadow=0;dashed=0;align=center;" parent="1" vertex="1">
          <mxGeometry x="330" y="270" width="160" height="70" as="geometry" />
        </mxCell>
        <mxCell id="Esd037rS6xa6UOOvia4e-11" value="+nombre&#xa;+valor&#xa;" style="align=left;strokeColor=none;fillColor=none;spacingLeft=4;fontSize=12;verticalAlign=top;resizable=0;rotatable=0;part=1;" parent="Esd037rS6xa6UOOvia4e-10" vertex="1">
          <mxGeometry y="30" width="160" height="40" as="geometry" />
        </mxCell>
        <mxCell id="Esd037rS6xa6UOOvia4e-12" value="INSTRUMENTO" style="swimlane;childLayout=stackLayout;horizontal=1;startSize=30;horizontalStack=0;rounded=1;fontSize=14;fontStyle=0;strokeWidth=2;resizeParent=0;resizeLast=1;shadow=0;dashed=0;align=center;" parent="1" vertex="1">
          <mxGeometry x="290" y="510.46000000000004" width="160" height="70" as="geometry" />
        </mxCell>
        <mxCell id="Esd037rS6xa6UOOvia4e-13" value="*num_serie&#xa;&#xa;" style="align=left;strokeColor=none;fillColor=none;spacingLeft=4;fontSize=12;verticalAlign=top;resizable=0;rotatable=0;part=1;fontStyle=1" parent="Esd037rS6xa6UOOvia4e-12" vertex="1">
          <mxGeometry y="30" width="160" height="40" as="geometry" />
        </mxCell>
        <mxCell id="Esd037rS6xa6UOOvia4e-14" value="ANALOGICO" style="swimlane;childLayout=stackLayout;horizontal=1;startSize=30;horizontalStack=0;rounded=1;fontSize=14;fontStyle=0;strokeWidth=2;resizeParent=0;resizeLast=1;shadow=0;dashed=0;align=center;" parent="1" vertex="1">
          <mxGeometry x="180" y="610.46" width="160" height="70" as="geometry" />
        </mxCell>
        <mxCell id="Esd037rS6xa6UOOvia4e-15" value="+fecha_ult_calibración" style="align=left;strokeColor=none;fillColor=none;spacingLeft=4;fontSize=12;verticalAlign=top;resizable=0;rotatable=0;part=1;fontStyle=0" parent="Esd037rS6xa6UOOvia4e-14" vertex="1">
          <mxGeometry y="30" width="160" height="40" as="geometry" />
        </mxCell>
        <mxCell id="Esd037rS6xa6UOOvia4e-16" value="DIGITAL" style="swimlane;childLayout=stackLayout;horizontal=1;startSize=30;horizontalStack=0;rounded=1;fontSize=14;fontStyle=0;strokeWidth=2;resizeParent=0;resizeLast=1;shadow=0;dashed=0;align=center;" parent="1" vertex="1">
          <mxGeometry x="380" y="610.46" width="160" height="70" as="geometry" />
        </mxCell>
        <mxCell id="Esd037rS6xa6UOOvia4e-17" value="+marca&#xa;+modelo" style="align=left;strokeColor=none;fillColor=none;spacingLeft=4;fontSize=12;verticalAlign=top;resizable=0;rotatable=0;part=1;fontStyle=0" parent="Esd037rS6xa6UOOvia4e-16" vertex="1">
          <mxGeometry y="30" width="160" height="40" as="geometry" />
        </mxCell>
        <mxCell id="Esd037rS6xa6UOOvia4e-28" value="se_realiza" style="shape=rhombus;perimeter=rhombusPerimeter;whiteSpace=wrap;html=1;align=center;" parent="1" vertex="1">
          <mxGeometry x="570" y="43" width="120" height="50" as="geometry" />
        </mxCell>
        <mxCell id="Esd037rS6xa6UOOvia4e-35" value="" style="endArrow=none;html=1;rounded=0;exitX=1;exitY=0.25;exitDx=0;exitDy=0;entryX=0;entryY=0.5;entryDx=0;entryDy=0;" parent="1" source="Esd037rS6xa6UOOvia4e-5" target="Esd037rS6xa6UOOvia4e-28" edge="1">
          <mxGeometry relative="1" as="geometry">
            <mxPoint x="340" y="200" as="sourcePoint" />
            <mxPoint x="500" y="200" as="targetPoint" />
          </mxGeometry>
        </mxCell>
        <mxCell id="Esd037rS6xa6UOOvia4e-36" value="(0,n)" style="resizable=0;html=1;align=right;verticalAlign=bottom;" parent="Esd037rS6xa6UOOvia4e-35" connectable="0" vertex="1">
          <mxGeometry x="1" relative="1" as="geometry" />
        </mxCell>
        <mxCell id="Esd037rS6xa6UOOvia4e-37" value="" style="endArrow=none;html=1;rounded=0;exitX=0.5;exitY=1;exitDx=0;exitDy=0;entryX=0.5;entryY=0;entryDx=0;entryDy=0;" parent="1" source="Esd037rS6xa6UOOvia4e-28" target="Esd037rS6xa6UOOvia4e-46" edge="1">
          <mxGeometry relative="1" as="geometry">
            <mxPoint x="410" y="220" as="sourcePoint" />
            <mxPoint x="660" y="125" as="targetPoint" />
          </mxGeometry>
        </mxCell>
        <mxCell id="Esd037rS6xa6UOOvia4e-38" value="(1,1)" style="resizable=0;html=1;align=right;verticalAlign=bottom;" parent="Esd037rS6xa6UOOvia4e-37" connectable="0" vertex="1">
          <mxGeometry x="1" relative="1" as="geometry" />
        </mxCell>
        <mxCell id="Esd037rS6xa6UOOvia4e-40" value="se_miden" style="shape=rhombus;perimeter=rhombusPerimeter;whiteSpace=wrap;html=1;align=center;" parent="1" vertex="1">
          <mxGeometry x="350" y="160" width="120" height="60" as="geometry" />
        </mxCell>
        <mxCell id="Esd037rS6xa6UOOvia4e-46" value="MONITOREO" style="swimlane;childLayout=stackLayout;horizontal=1;startSize=30;horizontalStack=0;rounded=1;fontSize=14;fontStyle=0;strokeWidth=2;resizeParent=0;resizeLast=1;shadow=0;dashed=0;align=center;" parent="1" vertex="1">
          <mxGeometry x="550" y="150" width="160" height="70" as="geometry" />
        </mxCell>
        <mxCell id="Esd037rS6xa6UOOvia4e-47" value="+fecha&#xa;+metodo_aplicado" style="align=left;strokeColor=none;fillColor=none;spacingLeft=4;fontSize=12;verticalAlign=top;resizable=0;rotatable=0;part=1;" parent="Esd037rS6xa6UOOvia4e-46" vertex="1">
          <mxGeometry y="30" width="160" height="40" as="geometry" />
        </mxCell>
        <mxCell id="Esd037rS6xa6UOOvia4e-48" value="RESULTADO" style="swimlane;childLayout=stackLayout;horizontal=1;startSize=30;horizontalStack=0;rounded=1;fontSize=14;fontStyle=0;strokeWidth=2;resizeParent=0;resizeLast=1;shadow=0;dashed=0;align=center;" parent="1" vertex="1">
          <mxGeometry x="50" y="350.46000000000004" width="160" height="70" as="geometry" />
        </mxCell>
        <mxCell id="Esd037rS6xa6UOOvia4e-49" value="valor_obtenido&#xa;" style="align=left;strokeColor=none;fillColor=none;spacingLeft=4;fontSize=12;verticalAlign=top;resizable=0;rotatable=0;part=1;fontStyle=0" parent="Esd037rS6xa6UOOvia4e-48" vertex="1">
          <mxGeometry y="30" width="160" height="40" as="geometry" />
        </mxCell>
        <mxCell id="Esd037rS6xa6UOOvia4e-50" value="" style="endArrow=none;html=1;rounded=0;entryX=0.25;entryY=1;entryDx=0;entryDy=0;exitX=0.5;exitY=0;exitDx=0;exitDy=0;" parent="1" source="Esd037rS6xa6UOOvia4e-14" target="Esd037rS6xa6UOOvia4e-13" edge="1">
          <mxGeometry relative="1" as="geometry">
            <mxPoint x="230" y="590.46" as="sourcePoint" />
            <mxPoint x="390" y="590.46" as="targetPoint" />
          </mxGeometry>
        </mxCell>
        <mxCell id="Esd037rS6xa6UOOvia4e-51" value="" style="endArrow=none;html=1;rounded=0;entryX=0.75;entryY=1;entryDx=0;entryDy=0;exitX=0.5;exitY=0;exitDx=0;exitDy=0;" parent="1" source="Esd037rS6xa6UOOvia4e-16" target="Esd037rS6xa6UOOvia4e-13" edge="1">
          <mxGeometry relative="1" as="geometry">
            <mxPoint x="230" y="590.46" as="sourcePoint" />
            <mxPoint x="390" y="590.46" as="targetPoint" />
          </mxGeometry>
        </mxCell>
        <mxCell id="Esd037rS6xa6UOOvia4e-52" value="&lt;b&gt;(G)&lt;/b&gt;" style="text;html=1;align=center;verticalAlign=middle;resizable=0;points=[];autosize=1;strokeColor=none;fillColor=none;" parent="1" vertex="1">
          <mxGeometry x="340" y="580.46" width="40" height="30" as="geometry" />
        </mxCell>
        <mxCell id="dP3Mfwqq9fk67yXib2NU-2" value="" style="endArrow=none;html=1;rounded=0;exitX=1;exitY=0.5;exitDx=0;exitDy=0;entryX=0;entryY=0.25;entryDx=0;entryDy=0;" edge="1" parent="1" source="Esd037rS6xa6UOOvia4e-40" target="Esd037rS6xa6UOOvia4e-47">
          <mxGeometry relative="1" as="geometry">
            <mxPoint x="400" y="330" as="sourcePoint" />
            <mxPoint x="560" y="330" as="targetPoint" />
          </mxGeometry>
        </mxCell>
        <mxCell id="dP3Mfwqq9fk67yXib2NU-3" value="(1,n)" style="resizable=0;html=1;align=right;verticalAlign=bottom;" connectable="0" vertex="1" parent="dP3Mfwqq9fk67yXib2NU-2">
          <mxGeometry x="1" relative="1" as="geometry" />
        </mxCell>
        <mxCell id="dP3Mfwqq9fk67yXib2NU-5" value="" style="endArrow=none;html=1;rounded=0;exitX=0.5;exitY=1;exitDx=0;exitDy=0;entryX=0.5;entryY=0;entryDx=0;entryDy=0;" edge="1" parent="1" source="Esd037rS6xa6UOOvia4e-40" target="Esd037rS6xa6UOOvia4e-10">
          <mxGeometry relative="1" as="geometry">
            <mxPoint x="480" y="200" as="sourcePoint" />
            <mxPoint x="560" y="200" as="targetPoint" />
          </mxGeometry>
        </mxCell>
        <mxCell id="dP3Mfwqq9fk67yXib2NU-6" value="(0,n)" style="resizable=0;html=1;align=right;verticalAlign=bottom;" connectable="0" vertex="1" parent="dP3Mfwqq9fk67yXib2NU-5">
          <mxGeometry x="1" relative="1" as="geometry" />
        </mxCell>
        <mxCell id="dP3Mfwqq9fk67yXib2NU-9" value="se utiliza" style="shape=rhombus;perimeter=rhombusPerimeter;whiteSpace=wrap;html=1;align=center;" vertex="1" parent="1">
          <mxGeometry x="310" y="420.46000000000004" width="120" height="60" as="geometry" />
        </mxCell>
        <mxCell id="dP3Mfwqq9fk67yXib2NU-12" value="" style="endArrow=none;html=1;rounded=0;exitX=0.5;exitY=1;exitDx=0;exitDy=0;entryX=0.5;entryY=0;entryDx=0;entryDy=0;" edge="1" parent="1" source="dP3Mfwqq9fk67yXib2NU-9" target="Esd037rS6xa6UOOvia4e-12">
          <mxGeometry relative="1" as="geometry">
            <mxPoint x="190" y="210.46" as="sourcePoint" />
            <mxPoint x="270" y="210.46" as="targetPoint" />
          </mxGeometry>
        </mxCell>
        <mxCell id="dP3Mfwqq9fk67yXib2NU-13" value="(0,n)" style="resizable=0;html=1;align=right;verticalAlign=bottom;" connectable="0" vertex="1" parent="dP3Mfwqq9fk67yXib2NU-12">
          <mxGeometry x="1" relative="1" as="geometry" />
        </mxCell>
        <mxCell id="dP3Mfwqq9fk67yXib2NU-14" value="" style="endArrow=none;html=1;rounded=0;entryX=0;entryY=0.5;entryDx=0;entryDy=0;exitX=1;exitY=0.25;exitDx=0;exitDy=0;" edge="1" parent="1" source="Esd037rS6xa6UOOvia4e-49" target="dP3Mfwqq9fk67yXib2NU-9">
          <mxGeometry relative="1" as="geometry">
            <mxPoint x="280" y="400.46000000000004" as="sourcePoint" />
            <mxPoint x="280" y="220.46" as="targetPoint" />
          </mxGeometry>
        </mxCell>
        <mxCell id="dP3Mfwqq9fk67yXib2NU-15" value="(1,1)" style="resizable=0;html=1;align=right;verticalAlign=bottom;" connectable="0" vertex="1" parent="dP3Mfwqq9fk67yXib2NU-14">
          <mxGeometry x="1" relative="1" as="geometry" />
        </mxCell>
        <mxCell id="dP3Mfwqq9fk67yXib2NU-16" value="se obtiene" style="shape=rhombus;perimeter=rhombusPerimeter;whiteSpace=wrap;html=1;align=center;" vertex="1" parent="1">
          <mxGeometry x="70" y="232.5" width="120" height="60" as="geometry" />
        </mxCell>
        <mxCell id="dP3Mfwqq9fk67yXib2NU-18" value="" style="endArrow=none;html=1;rounded=0;entryX=0;entryY=0.5;entryDx=0;entryDy=0;exitX=1;exitY=0.5;exitDx=0;exitDy=0;" edge="1" parent="1" source="dP3Mfwqq9fk67yXib2NU-16" target="dP3Mfwqq9fk67yXib2NU-8">
          <mxGeometry relative="1" as="geometry">
            <mxPoint x="500" y="550" as="sourcePoint" />
            <mxPoint x="560" y="550" as="targetPoint" />
          </mxGeometry>
        </mxCell>
        <mxCell id="dP3Mfwqq9fk67yXib2NU-19" value="(1,1)" style="resizable=0;html=1;align=right;verticalAlign=bottom;" connectable="0" vertex="1" parent="dP3Mfwqq9fk67yXib2NU-18">
          <mxGeometry x="1" relative="1" as="geometry" />
        </mxCell>
        <mxCell id="dP3Mfwqq9fk67yXib2NU-20" value="" style="endArrow=none;html=1;rounded=0;exitX=0.5;exitY=1;exitDx=0;exitDy=0;entryX=0.5;entryY=0;entryDx=0;entryDy=0;" edge="1" parent="1" source="dP3Mfwqq9fk67yXib2NU-16" target="Esd037rS6xa6UOOvia4e-48">
          <mxGeometry relative="1" as="geometry">
            <mxPoint x="620" y="630" as="sourcePoint" />
            <mxPoint x="620" y="660" as="targetPoint" />
          </mxGeometry>
        </mxCell>
        <mxCell id="dP3Mfwqq9fk67yXib2NU-21" value="(0,n)" style="resizable=0;html=1;align=right;verticalAlign=bottom;" connectable="0" vertex="1" parent="dP3Mfwqq9fk67yXib2NU-20">
          <mxGeometry x="1" relative="1" as="geometry" />
        </mxCell>
      </root>
    </mxGraphModel>
  </diagram>
</mxfile>
